<svg xmlns="http://www.w3.org/2000/svg" width="1050.656" height="245.406"><path d="m760.388.253l-4.019 20.441-4.769 18.503-3.675-.028-3.362-6.591-3.612 7.659.106 35.128-3.3 3.941-.081 26.847-141.112 3.034.2-9.341-6.612.128-12.737-18.216-6.862.409-8.268 18.441-5.55.222.294 25.441c-10.271 3.127-20.456 7.86-30.331 14.972-22.925 9.594-56.079 15.527-89.894 19.222l.044-16.934-12.581-28.153-39.737 1.909.044-12.622-4.144-22.466-4.237 22.441.169 13.722-18.8 1.378.325-14.716-6.487-5.966-9.237-47.716-9.8 49.097-6.206 4.972.325 16.628-7.581.253.2-17.341-6.769-5.841-8.831-50.309-9.8 51.284-5.206 5.534c.099.036-1.406 49.02-1.862 63.753-17.201 1.647-40.444 5.121-58.55 7.628-25.347 3.644-44.487 4.034-44.487 4.034.044.128-35.112-15.513-67.144-13.559-31.987 2.081-60.112 25.128-60.112 25.128-28.008 20.147-31.596 50.697-54.367 58.573 366.21-.023 737.085.342 1050.71.125.044.128-75.024-66.032-89.867-68.376-61.328-5.2-68.286 11.326-128.487-28.809l-.206-30.559-29.331-23.466-18.55-.403-.206-14.309-4.144-4.559-.206-33.716-3.3-7.372-3.55 6.503-2.8.034-5.987-18.778z" fill="#1abc9c"/></svg>